<?xml version="1.0" encoding="utf-8"?>
<!-- Generator: Adobe Illustrator 16.0.0, SVG Export Plug-In . SVG Version: 6.00 Build 0)  -->
<!DOCTYPE svg PUBLIC "-//W3C//DTD SVG 1.1//EN" "http://www.w3.org/Graphics/SVG/1.1/DTD/svg11.dtd">
<svg version="1.1" id="Слой_1" xmlns="http://www.w3.org/2000/svg" xmlns:xlink="http://www.w3.org/1999/xlink" x="0px" y="0px"
	 width="34.989px" height="35.006px" viewBox="0 0 34.989 35.006" enable-background="new 0 0 34.989 35.006" xml:space="preserve">
<g>
	<g>
		<path fill="#759BB1" d="M33.591,10.681c-1.846-4.303-4.973-7.453-9.283-9.304C22.147,0.452,19.888,0,17.512,0
			c-2.373,0-4.654,0.452-6.813,1.377c-4.311,1.851-7.458,5.001-9.304,9.304C0.466,12.846,0,15.101,0,17.475
			c0,2.373,0.47,4.646,1.395,6.813c1.851,4.34,5.001,7.476,9.304,9.32c2.166,0.929,4.44,1.397,6.813,1.397
			c2.375,0,4.629-0.469,6.795-1.397c4.303-1.845,7.434-4.98,9.283-9.32c0.926-2.167,1.398-4.44,1.398-6.813
			C34.989,15.101,34.521,12.846,33.591,10.681z M30.815,25.187c-1.381,2.373-3.254,4.248-5.609,5.628
			c-2.352,1.378-4.918,2.068-7.694,2.068c-2.775,0-5.362-0.687-7.732-2.068c-2.356-1.373-4.227-3.255-5.609-5.628
			c-1.374-2.356-2.067-4.937-2.067-7.712c0-2.088,0.403-4.076,1.226-5.974c0.824-1.894,1.905-3.53,3.272-4.898
			c1.37-1.367,3.021-2.458,4.921-3.273c1.89-0.811,3.904-1.204,5.99-1.204c2.776,0,5.346,0.682,7.694,2.048
			c2.359,1.369,4.232,3.253,5.609,5.606s2.068,4.92,2.068,7.695S32.188,22.83,30.815,25.187z M26.185,13.914l-8.786,8.555
			l-8.556-8.555c-0.413-0.412-1.093-0.383-1.476,0c-0.209,0.211-0.325,0.479-0.325,0.785c0,0.287,0.116,0.535,0.325,0.746
			l9.246,9.282c0.413,0.413,1.107,0.379,1.494,0l9.514-9.282c0.445-0.436,0.42-1.111,0.037-1.493
			C27.216,13.512,26.573,13.537,26.185,13.914z"/>
	</g>
</g>
</svg>
