<?xml version="1.0" encoding="utf-8"?>
<!-- Generator: Adobe Illustrator 16.0.0, SVG Export Plug-In . SVG Version: 6.00 Build 0)  -->
<!DOCTYPE svg PUBLIC "-//W3C//DTD SVG 1.1//EN" "http://www.w3.org/Graphics/SVG/1.1/DTD/svg11.dtd">
<svg version="1.1" id="Слой_1" xmlns="http://www.w3.org/2000/svg" xmlns:xlink="http://www.w3.org/1999/xlink" x="0px" y="0px"
	 width="34.801px" height="34.662px" viewBox="0 0 34.801 34.662" enable-background="new 0 0 34.801 34.662" xml:space="preserve">
<g>
	<g>
		<path fill="#FFFFFF" d="M33.412,10.576c-1.837-4.261-4.947-7.38-9.234-9.212C22.03,0.448,19.781,0,17.418,0
			c-2.36,0-4.629,0.448-6.776,1.364c-4.288,1.832-7.418,4.951-9.254,9.212C0.464,12.719,0,14.952,0,17.303
			c0,2.35,0.468,4.601,1.388,6.746c1.84,4.298,4.974,7.403,9.254,9.229c2.153,0.919,4.417,1.384,6.776,1.384
			c2.362,0,4.605-0.465,6.759-1.384c4.28-1.826,7.394-4.932,9.234-9.229c0.92-2.146,1.39-4.396,1.39-6.746
			C34.801,14.952,34.335,12.719,33.412,10.576z M30.651,24.939c-1.375,2.349-3.237,4.206-5.579,5.572
			c-2.341,1.364-4.893,2.048-7.653,2.048s-5.333-0.68-7.691-2.048c-2.344-1.36-4.205-3.224-5.579-5.572
			c-1.367-2.334-2.057-4.888-2.057-7.637c0-2.067,0.4-4.037,1.219-5.915c0.819-1.875,1.894-3.496,3.255-4.85
			c1.362-1.354,3.004-2.435,4.895-3.241c1.879-0.803,3.883-1.192,5.958-1.192c2.761,0,5.316,0.675,7.653,2.027
			c2.346,1.356,4.208,3.222,5.579,5.552c1.37,2.331,2.057,4.871,2.057,7.619C32.708,20.052,32.017,22.605,30.651,24.939z
			 M26.043,13.777l-8.738,8.471l-8.51-8.471c-0.411-0.409-1.086-0.379-1.467,0c-0.209,0.209-0.324,0.474-0.324,0.777
			c0,0.284,0.115,0.53,0.324,0.739l9.196,9.191c0.41,0.409,1.101,0.375,1.485,0l9.462-9.191c0.444-0.431,0.419-1.1,0.038-1.479
			C27.071,13.379,26.43,13.404,26.043,13.777z"/>
	</g>
</g>
</svg>
