<?xml version="1.0" encoding="utf-8"?>
<!-- Generator: Adobe Illustrator 16.0.0, SVG Export Plug-In . SVG Version: 6.00 Build 0)  -->
<!DOCTYPE svg PUBLIC "-//W3C//DTD SVG 1.1//EN" "http://www.w3.org/Graphics/SVG/1.1/DTD/svg11.dtd">
<svg version="1.1" id="Слой_1" xmlns="http://www.w3.org/2000/svg" xmlns:xlink="http://www.w3.org/1999/xlink" x="0px" y="0px"
	 width="146.381px" height="37.198px" viewBox="0 0 146.381 37.198" enable-background="new 0 0 146.381 37.198"
	 xml:space="preserve">
<g>
	<g>
		<polygon fill="#CB0A1D" points="11.841,0.513 11.841,11.498 7.089,0.513 0.001,0.513 0.001,24.908 7.089,24.908 7.089,13.818 
			11.499,24.908 18.931,24.908 18.931,0.513 		"/>
		<g>
			<defs>
				<rect id="SVGID_1_" width="146.381" height="37.198"/>
			</defs>
			<clipPath id="SVGID_2_">
				<use xlink:href="#SVGID_1_"  overflow="visible"/>
			</clipPath>
			<path clip-path="url(#SVGID_2_)" fill="#CB0A1D" d="M41.149,14.797c0,2.453-0.077,4.188-0.231,5.207
				c-0.155,1.02-0.638,1.951-1.45,2.795c-0.813,0.843-1.909,1.492-3.293,1.945c-1.383,0.451-2.993,0.678-4.833,0.678
				c-1.746,0-3.313-0.215-4.701-0.641c-1.391-0.429-2.509-1.068-3.354-1.922c-0.846-0.854-1.35-1.783-1.511-2.787
				c-0.161-1.005-0.241-2.764-0.241-5.275v-4.172c0-2.451,0.077-4.188,0.231-5.207c0.153-1.02,0.638-1.951,1.449-2.795
				c0.813-0.845,1.91-1.492,3.293-1.946C27.892,0.226,29.502,0,31.342,0c1.745,0,3.313,0.215,4.702,0.641
				c1.391,0.428,2.508,1.068,3.354,1.921c0.846,0.854,1.35,1.783,1.511,2.787c0.161,1.005,0.241,2.764,0.241,5.276V14.797z
				 M32.671,6.781c0-1.135-0.084-1.861-0.252-2.178s-0.513-0.475-1.037-0.475c-0.442,0-0.781,0.129-1.017,0.384
				c-0.235,0.256-0.353,1.013-0.353,2.269v11.393c0,1.416,0.077,2.289,0.231,2.621c0.155,0.332,0.514,0.498,1.078,0.498
				c0.577,0,0.946-0.192,1.106-0.574c0.161-0.381,0.242-1.29,0.242-2.727V6.781z"/>
			<polygon clip-path="url(#SVGID_2_)" fill="#CB0A1D" points="62.689,0.514 62.689,24.908 55.257,24.908 50.848,13.818 
				50.848,24.908 43.759,24.908 43.759,0.514 50.848,0.514 55.601,11.497 55.601,0.514 			"/>
			<path clip-path="url(#SVGID_2_)" fill="#313E46" d="M83.668,7.896h-7.874v-1.81c0-0.843-0.101-1.38-0.302-1.61
				c-0.202-0.23-0.537-0.349-1.007-0.349c-0.511,0-0.896,0.157-1.158,0.47c-0.262,0.311-0.393,0.782-0.393,1.416
				c0,0.814,0.146,1.428,0.44,1.841c0.282,0.412,1.08,0.909,2.396,1.49c3.774,1.677,6.15,3.053,7.132,4.125
				c0.979,1.076,1.47,2.81,1.47,5.199c0,1.739-0.271,3.021-0.815,3.842c-0.543,0.824-1.595,1.517-3.152,2.072
				c-1.557,0.56-3.369,0.838-5.438,0.838c-2.269,0-4.205-0.321-5.81-0.964c-1.604-0.643-2.655-1.461-3.152-2.457
				c-0.495-0.995-0.744-2.407-0.744-4.233v-1.598h7.874v2.967c0,0.914,0.11,1.503,0.332,1.765s0.614,0.392,1.179,0.392
				c0.563,0,0.982-0.166,1.258-0.498c0.276-0.332,0.413-0.824,0.413-1.476c0-1.437-0.261-2.376-0.785-2.818
				c-0.537-0.441-1.86-1.18-3.967-2.215c-2.108-1.044-3.504-1.803-4.189-2.276c-0.685-0.47-1.252-1.125-1.702-1.959
				C65.225,9.216,65,8.152,65,6.856c0-1.868,0.318-3.233,0.956-4.1c0.639-0.862,1.668-1.539,3.091-2.025
				C70.471,0.244,72.189,0,74.203,0c2.202,0,4.078,0.267,5.629,0.798c1.55,0.534,2.577,1.203,3.081,2.014
				c0.503,0.808,0.755,2.182,0.755,4.12V7.896z"/>
			<polygon clip-path="url(#SVGID_2_)" fill="#313E46" points="104.129,0.514 104.129,5.396 99.094,5.396 99.094,24.908 
				90.616,24.908 90.616,5.396 85.603,5.396 85.603,0.514 			"/>
			<path clip-path="url(#SVGID_2_)" fill="#313E46" d="M125.506,14.797c0,2.453-0.079,4.188-0.231,5.207
				c-0.155,1.02-0.639,1.951-1.45,2.795c-0.813,0.843-1.91,1.492-3.293,1.945c-1.383,0.451-2.994,0.678-4.833,0.678
				c-1.745,0-3.314-0.215-4.702-0.641c-1.39-0.429-2.508-1.068-3.354-1.922s-1.35-1.783-1.511-2.787
				c-0.161-1.005-0.242-2.764-0.242-5.275v-4.172c0-2.451,0.078-4.188,0.232-5.207c0.154-1.02,0.638-1.951,1.45-2.795
				c0.812-0.845,1.91-1.492,3.293-1.946C112.248,0.226,113.858,0,115.698,0c1.745,0,3.313,0.215,4.702,0.641
				c1.391,0.428,2.508,1.068,3.354,1.921c0.845,0.854,1.35,1.783,1.51,2.787c0.161,1.005,0.242,2.764,0.242,5.276V14.797z
				 M117.027,6.781c0-1.135-0.084-1.861-0.252-2.178s-0.515-0.475-1.037-0.475c-0.443,0-0.781,0.129-1.019,0.384
				c-0.233,0.256-0.351,1.013-0.351,2.269v11.393c0,1.416,0.077,2.289,0.23,2.621c0.156,0.332,0.515,0.498,1.077,0.498
				c0.579,0,0.948-0.192,1.108-0.574c0.161-0.381,0.242-1.29,0.242-2.727V6.781z"/>
			<path clip-path="url(#SVGID_2_)" fill="#313E46" d="M128.114,0.514h8.539c2.31,0,4.085,0.135,5.327,0.405
				c1.24,0.272,2.175,0.664,2.799,1.177c0.624,0.512,1.046,1.133,1.27,1.861c0.221,0.728,0.332,1.855,0.332,3.382v2.123
				c0,1.56-0.216,2.694-0.646,3.407c-0.429,0.713-1.218,1.259-2.367,1.643c-1.147,0.382-2.647,0.571-4.5,0.571h-2.274v9.825h-8.479
				V0.514z M136.594,4.688v6.208c0.239,0.01,0.448,0.015,0.623,0.015c0.778,0,1.319-0.143,1.621-0.43
				c0.303-0.286,0.452-0.881,0.452-1.785V6.691c0-0.834-0.174-1.376-0.521-1.628C138.417,4.813,137.693,4.688,136.594,4.688"/>
			<polygon clip-path="url(#SVGID_2_)" fill="#313E46" points="5.534,35.954 3.423,35.954 3.423,30.172 2.796,30.172 2.796,35.954 
				0.685,35.954 0.685,28.725 5.534,28.725 			"/>
			<path clip-path="url(#SVGID_2_)" fill="#313E46" d="M6.401,28.73h2.121c0.574,0,1.016,0.039,1.324,0.119
				c0.309,0.082,0.54,0.197,0.696,0.349c0.153,0.151,0.26,0.336,0.315,0.552c0.055,0.215,0.082,0.549,0.082,1.002v0.629
				c0,0.461-0.054,0.797-0.16,1.008s-0.304,0.373-0.588,0.486c-0.285,0.112-0.658,0.17-1.119,0.17H8.508v2.908H6.401V28.73z
				 M8.508,29.967v1.838l0.155,0.004c0.193,0,0.328-0.043,0.402-0.127c0.075-0.084,0.112-0.262,0.112-0.528v-0.595
				c0-0.246-0.043-0.406-0.129-0.481C8.962,30.004,8.78,29.967,8.508,29.967"/>
			<path clip-path="url(#SVGID_2_)" fill="#313E46" d="M16.443,32.961c0,0.724-0.019,1.238-0.058,1.54
				c-0.039,0.303-0.158,0.578-0.36,0.828s-0.474,0.441-0.817,0.575c-0.345,0.134-0.744,0.202-1.201,0.202
				c-0.435,0-0.823-0.064-1.17-0.189c-0.345-0.127-0.623-0.316-0.832-0.57c-0.211-0.252-0.336-0.528-0.377-0.826
				c-0.039-0.297-0.06-0.816-0.06-1.56v-1.236c0-0.727,0.021-1.241,0.058-1.543c0.039-0.301,0.158-0.578,0.36-0.828
				c0.203-0.248,0.476-0.439,0.819-0.575c0.343-0.134,0.744-0.2,1.201-0.2c0.433,0,0.822,0.063,1.168,0.189s0.623,0.316,0.834,0.57
				c0.209,0.252,0.334,0.526,0.375,0.824c0.039,0.297,0.06,0.818,0.06,1.563V32.961z M14.337,30.586
				c0-0.336-0.021-0.551-0.063-0.646c-0.042-0.093-0.128-0.14-0.258-0.14c-0.11,0-0.195,0.039-0.254,0.115
				c-0.057,0.073-0.086,0.299-0.086,0.67v3.374c0,0.42,0.018,0.678,0.057,0.776s0.128,0.147,0.268,0.147
				c0.144,0,0.235-0.057,0.275-0.17s0.061-0.383,0.061-0.808V30.586z"/>
			<polygon clip-path="url(#SVGID_2_)" fill="#313E46" points="21.958,35.954 20.196,35.954 20.196,32.666 19.101,35.954 
				17.253,35.954 17.253,28.725 19.016,28.725 19.016,31.988 20.196,28.725 21.958,28.725 			"/>
			<path clip-path="url(#SVGID_2_)" fill="#313E46" d="M26.56,31.861c0.306,0.092,0.535,0.242,0.685,0.451
				c0.15,0.211,0.226,0.702,0.226,1.478c0,0.574-0.073,1.017-0.221,1.336c-0.146,0.316-0.399,0.556-0.761,0.722
				c-0.36,0.166-0.822,0.248-1.386,0.248c-0.642,0-1.145-0.095-1.509-0.286c-0.365-0.191-0.606-0.428-0.722-0.705
				c-0.114-0.277-0.172-0.763-0.172-1.447v-0.571h2.022v1.172c0,0.313,0.02,0.511,0.062,0.597c0.042,0.084,0.134,0.127,0.278,0.127
				c0.157,0,0.26-0.056,0.31-0.16c0.05-0.107,0.075-0.387,0.075-0.84v-0.5c0-0.276-0.035-0.478-0.104-0.606
				c-0.07-0.127-0.174-0.211-0.311-0.252c-0.137-0.039-0.402-0.063-0.796-0.069v-1.048c0.48,0,0.777-0.016,0.891-0.049
				s0.195-0.105,0.245-0.215c0.05-0.11,0.075-0.283,0.075-0.519v-0.399c0-0.254-0.029-0.42-0.088-0.5
				c-0.058-0.08-0.149-0.121-0.272-0.121c-0.14,0-0.235,0.043-0.287,0.127c-0.053,0.086-0.077,0.265-0.077,0.543v0.592H22.7v-0.616
				c0-0.688,0.176-1.155,0.53-1.397c0.354-0.242,0.916-0.363,1.687-0.363c0.965,0,1.618,0.168,1.962,0.503
				c0.344,0.336,0.516,0.804,0.516,1.401c0,0.402-0.062,0.695-0.186,0.875C27.086,31.547,26.869,31.711,26.56,31.861"/>
			<path clip-path="url(#SVGID_2_)" fill="#313E46" d="M28.243,28.73h2.103c0.664,0,1.167,0.047,1.509,0.139
				s0.618,0.277,0.828,0.558c0.211,0.282,0.314,0.735,0.314,1.358c0,0.424-0.073,0.717-0.222,0.883
				c-0.149,0.168-0.441,0.295-0.879,0.384c0.488,0.099,0.817,0.26,0.991,0.489c0.174,0.226,0.261,0.576,0.261,1.046v0.67
				c0,0.488-0.063,0.85-0.188,1.086c-0.125,0.234-0.324,0.396-0.598,0.482c-0.274,0.086-0.834,0.129-1.682,0.129h-2.438V28.73z
				 M30.351,29.967v1.605l0.21-0.004c0.207,0,0.339-0.047,0.396-0.138c0.057-0.089,0.084-0.349,0.084-0.776
				c0-0.228-0.022-0.386-0.068-0.478c-0.047-0.089-0.108-0.146-0.184-0.171C30.713,29.982,30.567,29.968,30.351,29.967
				 M30.351,32.697v2.021c0.297-0.008,0.485-0.051,0.567-0.125c0.082-0.075,0.122-0.258,0.122-0.549V33.37
				c0-0.311-0.036-0.497-0.109-0.563C30.857,32.744,30.663,32.705,30.351,32.697"/>
			<path clip-path="url(#SVGID_2_)" fill="#313E46" d="M38.729,32.961c0,0.724-0.02,1.238-0.058,1.54
				c-0.038,0.303-0.158,0.578-0.359,0.828c-0.202,0.25-0.476,0.441-0.819,0.575s-0.744,0.202-1.201,0.202
				c-0.434,0-0.822-0.064-1.169-0.189c-0.345-0.127-0.623-0.316-0.833-0.57c-0.21-0.252-0.335-0.528-0.376-0.826
				c-0.039-0.297-0.06-0.816-0.06-1.56v-1.236c0-0.727,0.02-1.241,0.058-1.543c0.038-0.301,0.159-0.578,0.361-0.828
				c0.201-0.248,0.474-0.439,0.818-0.575c0.343-0.134,0.743-0.2,1.2-0.2c0.434,0,0.823,0.063,1.169,0.189s0.623,0.316,0.833,0.57
				c0.21,0.252,0.335,0.526,0.375,0.824c0.041,0.297,0.061,0.818,0.061,1.563V32.961z M36.621,30.586
				c0-0.336-0.021-0.551-0.062-0.646c-0.042-0.093-0.128-0.14-0.258-0.14c-0.11,0-0.194,0.039-0.253,0.115
				c-0.059,0.073-0.088,0.299-0.088,0.67v3.374c0,0.42,0.02,0.678,0.058,0.776c0.039,0.099,0.128,0.147,0.268,0.147
				c0.144,0,0.235-0.057,0.275-0.17s0.06-0.383,0.06-0.808V30.586z"/>
			<path clip-path="url(#SVGID_2_)" fill="#313E46" d="M45.632,37.198h-1.457v-1.244h-3.402v1.244H39.32v-2.752h0.431
				c0.227-0.592,0.413-1.37,0.559-2.335c0.145-0.967,0.217-2.022,0.217-3.166v-0.221h4.675v5.712h0.431V37.198z M43.089,34.437
				v-4.282h-0.626v0.053c0,1.382-0.167,2.792-0.5,4.229H43.089z"/>
			<path clip-path="url(#SVGID_2_)" fill="#313E46" d="M51.245,31.877h-2.106v-1.256c0-0.365-0.023-0.595-0.068-0.686
				c-0.045-0.09-0.144-0.135-0.298-0.135c-0.173,0-0.283,0.055-0.33,0.166c-0.047,0.109-0.07,0.348-0.07,0.713v3.356
				c0,0.35,0.023,0.579,0.07,0.686c0.047,0.107,0.152,0.162,0.315,0.162c0.156,0,0.26-0.055,0.308-0.162
				c0.049-0.108,0.073-0.36,0.073-0.756v-0.907h2.106v0.28c0,0.748-0.059,1.279-0.178,1.592c-0.118,0.313-0.38,0.586-0.785,0.822
				c-0.406,0.235-0.906,0.353-1.499,0.353c-0.618,0-1.127-0.099-1.526-0.3c-0.4-0.2-0.666-0.475-0.797-0.826
				c-0.13-0.354-0.194-0.883-0.194-1.592v-2.111c0-0.519,0.02-0.91,0.06-1.171c0.04-0.26,0.159-0.51,0.358-0.752
				c0.198-0.239,0.474-0.43,0.826-0.566c0.352-0.141,0.756-0.209,1.214-0.209c0.62,0,1.132,0.107,1.536,0.321
				c0.403,0.213,0.669,0.479,0.796,0.799c0.126,0.319,0.189,0.817,0.189,1.491V31.877z"/>
			<polygon clip-path="url(#SVGID_2_)" fill="#313E46" points="56.387,28.73 56.387,30.175 55.136,30.175 55.136,35.954 
				53.028,35.954 53.028,30.175 51.782,30.175 51.782,28.73 			"/>
			<path clip-path="url(#SVGID_2_)" fill="#313E46" d="M56.987,28.73h2.102c0.664,0,1.167,0.047,1.509,0.139
				c0.343,0.092,0.618,0.277,0.828,0.558c0.211,0.282,0.316,0.735,0.316,1.358c0,0.424-0.075,0.717-0.224,0.883
				c-0.148,0.168-0.44,0.295-0.878,0.384c0.487,0.099,0.817,0.26,0.991,0.489c0.173,0.226,0.26,0.576,0.26,1.046v0.67
				c0,0.488-0.063,0.85-0.188,1.086c-0.125,0.234-0.324,0.396-0.599,0.482c-0.273,0.086-0.834,0.129-1.682,0.129h-2.437V28.73z
				 M59.094,29.967v1.605l0.21-0.004c0.207,0,0.339-0.047,0.396-0.138c0.057-0.089,0.085-0.349,0.085-0.776
				c0-0.228-0.024-0.386-0.07-0.478c-0.047-0.089-0.107-0.146-0.183-0.171C59.457,29.982,59.311,29.968,59.094,29.967
				 M59.094,32.697v2.021c0.297-0.008,0.486-0.051,0.568-0.125c0.082-0.075,0.123-0.258,0.123-0.549V33.37
				c0-0.311-0.037-0.497-0.11-0.563C59.601,32.744,59.408,32.705,59.094,32.697"/>
			<path clip-path="url(#SVGID_2_)" fill="#313E46" d="M67.473,32.961c0,0.724-0.019,1.238-0.058,1.54
				c-0.038,0.303-0.158,0.578-0.36,0.828s-0.475,0.441-0.817,0.575c-0.345,0.134-0.745,0.202-1.201,0.202
				c-0.435,0-0.824-0.064-1.169-0.189c-0.346-0.127-0.623-0.316-0.833-0.57c-0.211-0.252-0.336-0.528-0.376-0.826
				c-0.04-0.297-0.061-0.816-0.061-1.56v-1.236c0-0.727,0.02-1.241,0.059-1.543c0.038-0.301,0.157-0.578,0.359-0.828
				c0.202-0.248,0.475-0.439,0.818-0.575c0.344-0.134,0.744-0.2,1.202-0.2c0.433,0,0.823,0.063,1.168,0.189
				c0.346,0.127,0.623,0.316,0.833,0.57c0.211,0.252,0.336,0.526,0.376,0.824c0.04,0.297,0.06,0.818,0.06,1.563V32.961z
				 M65.366,30.586c0-0.336-0.021-0.551-0.063-0.646c-0.041-0.093-0.127-0.14-0.258-0.14c-0.11,0-0.194,0.039-0.252,0.115
				c-0.059,0.073-0.088,0.299-0.088,0.67v3.374c0,0.42,0.019,0.678,0.058,0.776c0.038,0.099,0.127,0.147,0.268,0.147
				c0.144,0,0.235-0.057,0.275-0.17s0.061-0.383,0.061-0.808V30.586z"/>
			<path clip-path="url(#SVGID_2_)" fill="#313E46" d="M70.065,28.73h2.122c0.573,0,1.015,0.039,1.323,0.119
				c0.31,0.082,0.541,0.197,0.696,0.349s0.26,0.336,0.315,0.552c0.055,0.215,0.083,0.549,0.083,1.002v0.629
				c0,0.461-0.055,0.797-0.16,1.008c-0.107,0.211-0.303,0.373-0.589,0.486c-0.285,0.112-0.658,0.17-1.118,0.17h-0.566v2.908h-2.106
				V28.73z M72.172,29.967v1.838l0.155,0.004c0.194,0,0.328-0.043,0.404-0.127c0.075-0.084,0.111-0.262,0.111-0.528v-0.595
				c0-0.246-0.043-0.406-0.13-0.481C72.626,30.004,72.446,29.967,72.172,29.967"/>
			<polygon clip-path="url(#SVGID_2_)" fill="#313E46" points="75.263,28.73 78.776,28.73 78.776,30.175 77.37,30.175 77.37,31.544 
				78.686,31.544 78.686,32.919 77.37,32.919 77.37,34.508 78.916,34.508 78.916,35.954 75.263,35.954 			"/>
			<path clip-path="url(#SVGID_2_)" fill="#313E46" d="M79.574,28.725h2.111l0.011,3.053c0.396-0.01,0.602-0.205,0.615-0.59
				l0.04-1.408c0.014-0.521,0.127-0.871,0.341-1.055h1.946c-0.189,0.178-0.282,0.539-0.279,1.09l0.01,1.24
				c0.007,0.75-0.467,1.176-1.421,1.28c0.954,0.104,1.428,0.537,1.421,1.299l-0.01,1.152c-0.003,0.546,0.09,0.936,0.279,1.167
				h-1.946c-0.228-0.181-0.341-0.533-0.341-1.052v-1.41c0-0.179-0.061-0.324-0.183-0.431c-0.122-0.107-0.279-0.164-0.473-0.168
				l-0.011,3.061h-2.111V28.725z"/>
			<path clip-path="url(#SVGID_2_)" fill="#313E46" d="M90.549,35.954h-2.111v-5.782h-0.616v4.091c0,0.539-0.078,0.925-0.233,1.16
				c-0.156,0.236-0.392,0.383-0.709,0.441c-0.316,0.061-0.822,0.09-1.515,0.09h-0.33V34.71c0.257,0,0.434-0.029,0.53-0.086
				c0.097-0.055,0.145-0.25,0.145-0.58v-5.319h4.84V35.954z"/>
			<path clip-path="url(#SVGID_2_)" fill="#313E46" d="M95.209,28.729l1.205,7.225H94.26l-0.112-1.299h-0.753l-0.128,1.299h-2.178
				l1.074-7.225H95.209z M94.092,33.374c-0.105-0.817-0.214-1.829-0.32-3.032c-0.215,1.383-0.35,2.394-0.404,3.032H94.092z"/>
			<path clip-path="url(#SVGID_2_)" fill="#313E46" d="M103.45,28.73v7.224h-1.842l-0.004-4.876l-0.732,4.876h-1.306l-0.774-4.767
				l-0.002,4.767h-1.842V28.73h2.726c0.081,0.434,0.165,0.944,0.251,1.535l0.299,1.838l0.484-3.373H103.45z"/>
			<path clip-path="url(#SVGID_2_)" fill="#313E46" d="M109.229,34.262c0,0.54-0.08,0.927-0.235,1.161
				c-0.158,0.236-0.395,0.382-0.715,0.441c-0.318,0.061-0.825,0.09-1.523,0.09h-2.438v-7.23h2.112v2.479h0.325
				c0.65,0,1.143,0.033,1.476,0.101c0.334,0.069,0.584,0.222,0.749,0.454c0.166,0.234,0.249,0.6,0.249,1.1V34.262z M107.116,34.044
				V33c0-0.303-0.033-0.489-0.104-0.553c-0.068-0.066-0.263-0.104-0.583-0.111v2.374c0.267,0,0.448-0.032,0.544-0.092
				C107.067,34.555,107.116,34.366,107.116,34.044 M112.055,35.954h-2.111v-7.229h2.111V35.954z"/>
		</g>
	</g>
</g>
</svg>
